<?xml version="1.0" encoding="UTF-8" standalone="no"?>
<svg
   width="3000"
   height="1500"
   viewBox="0 0 15 7.5"
   version="1.1"
   id="svg3"
   xmlns="http://www.w3.org/2000/svg"
   xmlns:svg="http://www.w3.org/2000/svg">
  <defs
     id="defs3" />
  <rect
     fill="#009639"
     width="13"
     height="4.5"
     id="rect1"
     x="1.9999999"
     y="1.5"
     style="stroke-width:1.80278" />
  <rect
     fill="#ffffff"
     width="13"
     height="3"
     id="rect2"
     x="1.9999999"
     y="1.5"
     style="stroke-width:1.80278" />
  <rect
     width="13"
     height="1.5"
     id="rect3"
     x="1.9999999"
     y="1.5"
     style="stroke-width:1.80278" />
  <g
     id="g1">
    <rect
       width="7"
       height="1.5"
       id="rect3-0-4-5"
       x="8"
       y="-1.5"
       style="fill:#770088;fill-opacity:1;stroke-width:1.32287"
       transform="scale(1,-1)" />
    <path
       style="fill:#004cff;fill-opacity:1;stroke:none;stroke-width:0.005;stroke-opacity:1"
       d="m 10.4,1.5 h 2 L 10.4,2.2351742e-8 7.8000001,0 v 1.5"
       id="path9-4-4" />
    <path
       style="fill:#009639;fill-opacity:1;stroke:none;stroke-width:0.005;stroke-opacity:1"
       d="m 7.8000001,1.5 h 2 l -2,-1.499999977648258 h -2.6 L 5.2000001,1.5"
       id="path9-2-3" />
    <path
       style="fill:#ffee00;fill-opacity:1;stroke:none;stroke-width:0.005;stroke-opacity:1"
       d="m 5.2000001,1.5 h 2 l -2,-1.499999977648258 -2.6,2.2351742e-8 L 2.6,1.5"
       id="path9-6-3" />
    <path
       style="display:inline;fill:#ff8d00;fill-opacity:1;stroke:none;stroke-width:0.005;stroke-opacity:1"
       d="m 2.6000001,1.5 h 2 L 2.6000001,4.4703484e-8 0,0 v 1.5"
       id="path9-7" />
  </g>
  <g
     id="g2"
     transform="matrix(1,0,0,-1,1.7136335e-7,7.5000001)">
    <rect
       width="7"
       height="1.5"
       id="rect3-0-4-5-2"
       x="8"
       y="-1.5"
       style="fill:#770088;fill-opacity:1;stroke-width:1.32287"
       transform="scale(1,-1)" />
    <path
       style="fill:#004cff;fill-opacity:1;stroke:none;stroke-width:0.005;stroke-opacity:1"
       d="m 10.4,1.5 h 2 L 10.4,2.2351742e-8 7.8000001,0 v 1.5"
       id="path9-4-4-3" />
    <path
       style="fill:#009639;fill-opacity:1;stroke:none;stroke-width:0.005;stroke-opacity:1"
       d="m 7.8000001,1.5 h 2 l -2,-1.499999977648258 h -2.6 L 5.2000001,1.5"
       id="path9-2-3-7" />
    <path
       style="fill:#ffee00;fill-opacity:1;stroke:none;stroke-width:0.005;stroke-opacity:1"
       d="m 5.2000001,1.5 h 2 l -2,-1.499999977648258 -2.6,2.2351742e-8 L 2.6,1.5"
       id="path9-6-3-4" />
    <path
       style="display:inline;fill:#ff8d00;fill-opacity:1;stroke:none;stroke-width:0.005;stroke-opacity:1"
       d="m 2.6000001,1.5 h 2 L 2.6000001,4.4703484e-8 0,0 v 1.5"
       id="path9-7-0" />
  </g>
  <path
     fill="#ed2e38"
     d="M -4.6426392e-8,0 4.9999999,3.75 -4.6426392e-8,7.4999999 Z"
     id="path3"
     style="display:inline;stroke-width:2.50001" />
</svg>
