<?xml version="1.0" encoding="UTF-8" standalone="no"?>
<svg
   width="2200"
   height="1500"
   viewBox="0 0 11 7.5"
   version="1.1"
   id="svg3"
   xmlns="http://www.w3.org/2000/svg"
   xmlns:svg="http://www.w3.org/2000/svg">
  <defs
     id="defs3" />
  <rect
     fill="#009639"
     width="9"
     height="4.5"
     id="rect1"
     x="1.9999999"
     y="1.5"
     style="stroke-width:1.5" />
  <rect
     fill="#ffffff"
     width="9"
     height="3"
     id="rect2"
     x="1.9999999"
     y="1.5"
     style="stroke-width:1.5" />
  <rect
     width="9"
     height="1.5"
     id="rect3"
     x="1.9999999"
     y="1.5"
     style="stroke-width:1.5" />
  <rect
     width="3"
     height="1.5"
     id="rect3-0-4"
     x="8"
     y="6"
     style="fill:#770088;fill-opacity:1;stroke-width:0.866024" />
  <path
     style="fill:#004cff;fill-opacity:1;stroke:none;stroke-width:0.005;stroke-opacity:1"
     d="m 8,6 h 2 L 8,7.5 H 6 V 6"
     id="path9-4" />
  <path
     style="fill:#009639;fill-opacity:1;stroke:none;stroke-width:0.005;stroke-opacity:1"
     d="M 6,6 H 8 L 6,7.5 H 4 V 6"
     id="path9-2" />
  <path
     style="fill:#ffee00;fill-opacity:1;stroke:none;stroke-width:0.005;stroke-opacity:1"
     d="M 4,6 H 6 L 4,7.5 H 2 V 6"
     id="path9-6" />
  <path
     style="display:inline;fill:#ff8d00;fill-opacity:1;stroke:none;stroke-width:0.005;stroke-opacity:1"
     d="M 2,6 H 4 L 2,7.5 H 0 V 6"
     id="path9" />
  <rect
     width="3"
     height="1.5"
     id="rect3-0-4-5"
     x="8"
     y="-1.5"
     style="fill:#770088;fill-opacity:1;stroke-width:0.866024"
     transform="scale(1,-1)" />
  <path
     style="fill:#004cff;fill-opacity:1;stroke:none;stroke-width:0.005;stroke-opacity:1"
     d="m 8,1.5 h 2 L 8,0 H 6 v 1.5"
     id="path9-4-4" />
  <path
     style="fill:#009639;fill-opacity:1;stroke:none;stroke-width:0.005;stroke-opacity:1"
     d="M 6,1.5 H 8 L 6,0 H 4 v 1.5"
     id="path9-2-3" />
  <path
     style="fill:#ffee00;fill-opacity:1;stroke:none;stroke-width:0.005;stroke-opacity:1"
     d="M 4,1.5 H 6 L 4,0 H 2 v 1.5"
     id="path9-6-3" />
  <path
     style="display:inline;fill:#ff8d00;fill-opacity:1;stroke:none;stroke-width:0.005;stroke-opacity:1"
     d="M 2,1.5 H 4 L 2,0 H 0 v 1.5"
     id="path9-7" />
  <path
     fill="#ed2e38"
     d="M -4.6426392e-8,0 4.9999999,3.75 -4.6426392e-8,7.4999999 Z"
     id="path3"
     style="display:inline;stroke-width:2.50001" />
</svg>
