<?xml version="1.0" encoding="UTF-8" standalone="no"?>
<svg
   width="2400"
   height="1700"
   viewBox="0 0 12 8.5"
   version="1.1"
   id="svg3"
   sodipodi:docname="palestinian_gay_pride_flag_construction.svg"
   inkscape:version="1.3.2 (091e20e, 2023-11-25, custom)"
   xmlns:inkscape="http://www.inkscape.org/namespaces/inkscape"
   xmlns:sodipodi="http://sodipodi.sourceforge.net/DTD/sodipodi-0.dtd"
   xmlns="http://www.w3.org/2000/svg"
   xmlns:svg="http://www.w3.org/2000/svg">
  <defs
     id="defs3" />
  <sodipodi:namedview
     id="namedview3"
     pagecolor="#ffffff"
     bordercolor="#000000"
     borderopacity="0.25"
     inkscape:showpageshadow="2"
     inkscape:pageopacity="0.0"
     inkscape:pagecheckerboard="0"
     inkscape:deskcolor="#d1d1d1"
     showgrid="true"
     inkscape:zoom="0.31833333"
     inkscape:cx="722.5131"
     inkscape:cy="753.92671"
     inkscape:window-width="1920"
     inkscape:window-height="1010"
     inkscape:window-x="2729"
     inkscape:window-y="-6"
     inkscape:window-maximized="1"
     inkscape:current-layer="svg3"
     inkscape:export-bgcolor="#ffffffff">
    <inkscape:page
       x="0"
       y="0"
       width="12"
       height="8.5"
       id="page3"
       margin="0"
       bleed="0"
       inkscape:export-filename="palestinian_gay_pride_flag_construction.png"
       inkscape:export-xdpi="32"
       inkscape:export-ydpi="32" />
    <inkscape:grid
       id="grid9"
       units="px"
       originx="0.5"
       originy="0.5"
       spacingx="0.5"
       spacingy="0.5"
       empcolor="#0099e5"
       empopacity="0.30196078"
       color="#0099e5"
       opacity="0.14901961"
       empspacing="1"
       dotted="false"
       gridanglex="30"
       gridanglez="30"
       visible="true" />
  </sodipodi:namedview>
  <g
     id="g1"
     inkscape:label="flag"
     style="opacity:0.75"
     transform="translate(0.5,0.5)">
    <rect
       fill="#009639"
       width="9"
       height="4.5"
       id="rect1"
       x="1.9999999"
       y="1.5"
       style="stroke-width:1.5" />
    <rect
       fill="#ffffff"
       width="9"
       height="3"
       id="rect2"
       x="1.9999999"
       y="1.5"
       style="stroke-width:1.5" />
    <rect
       width="9"
       height="1.5"
       id="rect3"
       x="1.9999999"
       y="1.5"
       style="stroke-width:1.5" />
    <rect
       width="3"
       height="1.5"
       id="rect3-0-4"
       x="8"
       y="6"
       style="fill:#770088;fill-opacity:1;stroke-width:0.866024" />
    <path
       style="fill:#004cff;fill-opacity:1;stroke:none;stroke-width:0.005;stroke-opacity:1"
       d="m 8,6 h 2 L 8,7.5 H 6 V 6"
       id="path9-4"
       sodipodi:nodetypes="ccccc" />
    <path
       style="fill:#009639;fill-opacity:1;stroke:none;stroke-width:0.005;stroke-opacity:1"
       d="M 6,6 H 8 L 6,7.5 H 4 V 6"
       id="path9-2"
       sodipodi:nodetypes="ccccc" />
    <path
       style="fill:#ffee00;fill-opacity:1;stroke:none;stroke-width:0.005;stroke-opacity:1"
       d="M 4,6 H 6 L 4,7.5 H 2 V 6"
       id="path9-6"
       sodipodi:nodetypes="ccccc" />
    <path
       style="display:inline;fill:#ff8d00;fill-opacity:1;stroke:none;stroke-width:0.005;stroke-opacity:1"
       d="M 2,6 H 4 L 2,7.5 H 0 V 6"
       id="path9"
       sodipodi:nodetypes="ccccc" />
    <rect
       width="3"
       height="1.5"
       id="rect3-0-4-5"
       x="8"
       y="-1.5"
       style="fill:#770088;fill-opacity:1;stroke-width:0.866024"
       transform="scale(1,-1)" />
    <path
       style="fill:#004cff;fill-opacity:1;stroke:none;stroke-width:0.005;stroke-opacity:1"
       d="m 8,1.5 h 2 L 8,0 H 6 v 1.5"
       id="path9-4-4"
       sodipodi:nodetypes="ccccc" />
    <path
       style="fill:#009639;fill-opacity:1;stroke:none;stroke-width:0.005;stroke-opacity:1"
       d="M 6,1.5 H 8 L 6,0 H 4 v 1.5"
       id="path9-2-3"
       sodipodi:nodetypes="ccccc" />
    <path
       style="fill:#ffee00;fill-opacity:1;stroke:none;stroke-width:0.005;stroke-opacity:1"
       d="M 4,1.5 H 6 L 4,0 H 2 v 1.5"
       id="path9-6-3"
       sodipodi:nodetypes="ccccc" />
    <path
       style="display:inline;fill:#ff8d00;fill-opacity:1;stroke:none;stroke-width:0.005;stroke-opacity:1"
       d="M 2,1.5 H 4 L 2,0 H 0 v 1.5"
       id="path9-7"
       sodipodi:nodetypes="ccccc" />
    <path
       fill="#ed2e38"
       d="M -4.6426392e-8,0 4.9999999,3.75 -4.6426392e-8,7.4999999 Z"
       id="path3"
       style="display:inline;stroke-width:2.50001" />
  </g>
  <path
     d="M 0.5,0.5 V 8 M 1,0.5 V 8 M 1.5,0.5 V 8 M 2,0.5 V 8 M 2.5,0.5 V 8 M 3,0.5 V 8 M 3.5,0.5 V 8 M 4,0.5 V 8 M 4.5,0.5 V 8 M 5,0.5 V 8 M 5.5,0.5 V 8 M 6,0.5 V 8 M 6.5,0.5 V 8 M 7,0.5 V 8 M 7.5,0.5 V 8 M 8,0.5 V 8 M 8.5,0.5 V 8 M 9,0.5 V 8 M 9.5,0.5 V 8 M 10,0.5 V 8 M 10.5,0.5 V 8 M 11,0.5 V 8 M 11.5,0.5 V 8 M 0.5,0.5 h 11 M 0.5,1 h 11 m -11,0.5 h 11 M 0.5,2 h 11 m -11,0.5 h 11 M 0.5,3 h 11 m -11,0.5 h 11 M 0.5,4 h 11 m -11,0.5 h 11 M 0.5,5 h 11 m -11,0.5 h 11 M 0.5,6 h 11 m -11,0.5 h 11 M 0.5,7 h 11 m -11,0.5 h 11 M 0.5,8 h 11"
     style="fill:none;stroke:#000000;stroke-width:0.015;stroke-dasharray:none"
     id="path1" />
</svg>
